<svg width="32" height="28" viewBox="0 0 32 28" fill="none" xmlns="http://www.w3.org/2000/svg">
  <path d="M30.6786 9.41281C30.3324 8.58602 29.7537 7.98918 29.0095 7.68947L28.9992 7.68688C28.6556 7.55253 28.3016 7.48535 27.9347 7.48535H27.8934C26.1881 7.51119 24.4467 8.96066 23.5605 11.0948C22.912 12.6528 22.837 14.3296 23.3615 15.5801C23.7078 16.4069 24.2865 17.0038 25.0358 17.3035L25.0435 17.3061C25.3872 17.4404 25.7411 17.5076 26.108 17.5076C27.8314 17.5076 29.5909 16.0555 30.4926 13.8956C31.1334 12.3376 31.2057 10.6633 30.6786 9.41281Z" fill="white" />
  <path d="M23.863 18.6081C22.8786 18.019 21.9484 17.4583 21.3413 16.4533C19.6644 13.6732 18.6542 11.9938 16.0007 11.9938C13.3447 11.9938 12.3318 13.6732 10.6524 16.4533C10.0427 17.4609 9.10993 18.019 8.12295 18.6133C6.99129 19.2928 5.82344 19.9956 5.31704 21.3804C5.12067 21.8817 5.02249 22.4036 5.02766 22.9462C5.02766 25.1966 6.77942 27.0284 8.93424 27.0284C10.0478 27.0284 11.2286 26.6435 12.4817 26.2352C13.6857 25.8425 14.9311 25.4394 16.0059 25.4394C17.0807 25.4394 18.3235 25.8425 19.5223 26.2352C20.7728 26.6409 21.9484 27.0259 23.0646 27.0259C25.2143 27.0259 26.966 25.194 26.966 22.9436C26.9686 22.401 26.8678 21.8791 26.6689 21.3778C26.1625 19.993 24.9946 19.2902 23.863 18.6081Z" fill="white" />
  <path d="M9.36065 9.79256C10.1073 10.7279 11.053 11.2446 12.0245 11.2446C12.1562 11.2446 12.288 11.2343 12.4198 11.2136C14.448 10.9165 15.7114 8.44127 15.2955 5.57851C15.1223 4.37191 14.6599 3.25058 13.9958 2.41862C13.2517 1.4859 12.3035 0.971741 11.332 0.971741C11.2003 0.971741 11.0685 0.982076 10.9367 1.00275C8.9085 1.29987 7.64506 3.77249 8.06104 6.63784C8.23415 7.84185 8.69664 8.9606 9.36065 9.79256Z" fill="white" />
  <path d="M19.5792 11.2136C19.711 11.2343 19.8428 11.2446 19.9771 11.2446C20.9486 11.2446 21.8942 10.7279 22.6383 9.79256C23.3024 8.9606 23.7623 7.84185 23.9379 6.63784C24.3539 3.77249 23.0905 1.29987 21.0623 1.00016C20.9305 0.979492 20.7987 0.971741 20.667 0.971741C19.6955 0.971741 18.7473 1.4859 18.0031 2.41862C17.3391 3.25058 16.8766 4.37191 16.7035 5.57851C16.2901 8.44127 17.551 10.9165 19.5792 11.2136Z" fill="white" />
  <path d="M6.95514 17.3061L6.96289 17.3035C7.71217 17.0038 8.28834 16.4069 8.63456 15.5827C9.16163 14.3296 9.08671 12.6528 8.43819 11.0948C7.54164 8.9374 5.78213 7.48535 4.06137 7.48535C3.69449 7.48535 3.33793 7.55253 2.99688 7.68688L2.98655 7.68947C2.24244 7.98659 1.66368 8.58343 1.31746 9.41022C0.792969 10.6633 0.867897 12.3376 1.51641 13.8981C2.41296 16.0555 4.17247 17.5076 5.89323 17.5076C6.26012 17.5076 6.61409 17.4404 6.95514 17.3061Z" fill="white" />
</svg>