<svg width="36" height="30" viewBox="0 0 36 30" fill="none" xmlns="http://www.w3.org/2000/svg">
    <path d="M34.8069 9.7476C34.4105 8.80093 33.7478 8.11755 32.8958 7.77439L32.884 7.77143C32.4905 7.6176 32.0852 7.54068 31.6652 7.54068H31.6178C29.6653 7.57026 27.6714 9.22989 26.6567 11.6735C25.9142 13.4573 25.8284 15.3773 26.4289 16.8091C26.8253 17.7558 27.488 18.4392 28.3459 18.7823L28.3548 18.7853C28.7482 18.9391 29.1535 19.0161 29.5736 19.0161C31.5468 19.0161 33.5614 17.3535 34.5939 14.8803C35.3276 13.0964 35.4104 11.1794 34.8069 9.7476Z" fill="#313131" />
    <path d="M27.0031 20.2761C25.8759 19.6016 24.8109 18.9597 24.1157 17.8089C22.1958 14.6257 21.0391 12.7028 18.0008 12.7028C14.9597 12.7028 13.8 14.6257 11.8771 17.8089C11.1789 18.9626 10.111 19.6016 8.98089 20.282C7.68514 21.0601 6.34797 21.8647 5.76814 23.4504C5.54331 24.0243 5.43089 24.6219 5.43681 25.2432C5.43681 27.8199 7.44256 29.9173 9.90981 29.9173C11.1848 29.9173 12.5368 29.4765 13.9716 29.0091C15.3502 28.5595 16.7761 28.098 18.0068 28.098C19.2374 28.098 20.6604 28.5595 22.0331 29.0091C23.4649 29.4736 24.8109 29.9144 26.0889 29.9144C28.5503 29.9144 30.556 27.8169 30.556 25.2402C30.559 24.619 30.4436 24.0214 30.2158 23.4475C29.636 21.8618 28.2988 21.0571 27.0031 20.2761Z" fill="#313131" />
    <path d="M10.398 10.1824C11.253 11.2533 12.3357 11.845 13.4481 11.845C13.5989 11.845 13.7498 11.8332 13.9007 11.8095C16.223 11.4693 17.6696 8.63521 17.1933 5.35738C16.9951 3.97584 16.4656 2.69192 15.7053 1.73934C14.8533 0.671381 13.7676 0.0826721 12.6552 0.0826721C12.5043 0.0826721 12.3535 0.0945055 12.2026 0.118172C9.88031 0.458381 8.43368 3.28951 8.90997 6.5703C9.10818 7.94888 9.63772 9.22984 10.398 10.1824Z" fill="#313131" />
    <path d="M22.0982 11.8095C22.2491 11.8332 22.4 11.845 22.5538 11.845C23.6661 11.845 24.7489 11.2533 25.6009 10.1824C26.3612 9.22984 26.8878 7.94888 27.0889 6.5703C27.5652 3.28951 26.1186 0.45838 23.7963 0.115214C23.6454 0.0915471 23.4946 0.0826721 23.3437 0.0826721C22.2313 0.0826721 21.1456 0.671381 20.2936 1.73934C19.5333 2.69192 19.0038 3.97584 18.8056 5.35738C18.3323 8.63521 19.7759 11.4693 22.0982 11.8095Z" fill="#313131" />
    <path d="M7.64376 18.7853L7.65263 18.7823C8.51055 18.4392 9.17026 17.7558 9.56667 16.8121C10.1702 15.3773 10.0844 13.4573 9.34184 11.6735C8.3153 9.20326 6.30067 7.54068 4.33042 7.54068C3.91034 7.54068 3.50209 7.6176 3.11159 7.77143L3.09976 7.77439C2.24776 8.1146 1.58509 8.79797 1.18867 9.74464C0.58813 11.1794 0.673922 13.0964 1.41646 14.8833C2.44301 17.3535 4.45763 19.0161 6.42788 19.0161C6.84796 19.0161 7.25326 18.9391 7.64376 18.7853Z" fill="#313131" />
  </svg>