<svg width="24" height="20" viewBox="0 0 24 20" fill="none" xmlns="http://www.w3.org/2000/svg">
  <path
    d="M16.3184 10.8673C15.1142 9.59943 13.5806 8.90123 12.0001 8.90123C10.4196 8.90123 8.88595 9.59948 7.68178 10.8674C6.53334 12.0764 5.7315 13.7548 5.42385 15.5932C5.22759 16.7658 5.58595 17.8945 6.40706 18.6899C7.26103 19.517 8.37651 19.7684 9.46762 19.3797C10.2764 19.0915 11.1284 18.9453 12.0001 18.9453C12.8717 18.9453 13.7238 19.0914 14.5327 19.3797C14.8692 19.4996 15.2079 19.5586 15.5407 19.5586C16.2869 19.5585 17.0026 19.2619 17.5932 18.6899C18.4143 17.8945 18.7726 16.7658 18.5764 15.5932C18.2687 13.7548 17.4669 12.0764 16.3184 10.8673ZM16.5495 17.6124C16.1084 18.0398 15.5851 18.1624 15.0361 17.9668C14.0653 17.6207 13.0438 17.4453 12 17.4453C10.9563 17.4453 9.93482 17.6207 8.96404 17.9667C8.41514 18.1625 7.89178 18.0398 7.45064 17.6125C6.98236 17.1588 6.78792 16.5296 6.90318 15.8407C7.43062 12.6889 9.57412 10.4012 12 10.4012C14.4259 10.4012 16.5694 12.6889 17.0969 15.8407C17.2122 16.5297 17.0178 17.1589 16.5495 17.6124ZM15.5804 8.35026C16.4092 8.35026 17.2001 7.88924 17.7503 7.08538C18.2492 6.35667 18.5239 5.40154 18.5239 4.39598C18.5239 3.39037 18.2492 2.43524 17.7503 1.70653C17.2001 0.902666 16.4092 0.44165 15.5804 0.44165C14.7517 0.44165 13.9609 0.902619 13.4106 1.70648C12.9117 2.4352 12.637 3.39037 12.637 4.39593C12.637 5.40149 12.9117 6.35662 13.4106 7.08534C13.9609 7.88924 14.7517 8.35026 15.5804 8.35026ZM15.5804 1.9416C16.2632 1.9416 17.0239 2.94956 17.0239 4.39593C17.0239 5.84226 16.2632 6.85021 15.5804 6.85021C14.8978 6.85021 14.137 5.84226 14.137 4.39593C14.137 2.94956 14.8978 1.9416 15.5804 1.9416ZM8.41973 8.35026C9.24848 8.35026 10.0394 7.88924 10.5896 7.08538C11.0885 6.35667 11.3632 5.40154 11.3632 4.39598C11.3632 3.39042 11.0885 2.43524 10.5896 1.70653C10.0394 0.902666 9.24848 0.44165 8.41973 0.44165C7.59098 0.44165 6.80006 0.902666 6.24984 1.70653C5.75095 2.43524 5.47626 3.39037 5.47626 4.39598C5.47626 5.40154 5.75095 6.35667 6.24984 7.08538C6.80006 7.88924 7.59098 8.35026 8.41973 8.35026ZM8.41973 1.9416C9.10242 1.9416 9.86315 2.94956 9.86315 4.39593C9.86315 5.84226 9.10242 6.85021 8.41973 6.85021C7.737 6.85021 6.97626 5.84226 6.97626 4.39593C6.97626 2.94956 7.73695 1.9416 8.41973 1.9416ZM23.0865 8.0437C22.8001 7.27865 22.2361 6.7259 21.5392 6.52715C20.8422 6.3284 20.0716 6.50062 19.4249 6.99956C18.8358 7.45396 18.3868 8.14092 18.1607 8.93385C17.9346 9.72679 17.9537 10.5472 18.2145 11.244C18.5009 12.009 19.0649 12.5618 19.7618 12.7606C19.9516 12.8147 20.1468 12.8413 20.3435 12.8413C20.8692 12.8413 21.4055 12.6512 21.8762 12.2882C22.4653 11.8338 22.9143 11.1468 23.1404 10.3538C23.3664 9.5609 23.3474 8.74049 23.0865 8.0437ZM21.6979 9.94251C21.4166 10.929 20.6691 11.4593 20.1732 11.3181C19.6778 11.1768 19.3219 10.3319 19.6032 9.34523C19.8544 8.46417 20.4778 7.94718 20.9611 7.94718C21.019 7.94718 21.075 7.95459 21.128 7.96968C21.4487 8.06109 21.6126 8.38476 21.6817 8.56959C21.8288 8.9624 21.8347 9.46279 21.6979 9.94251ZM5.8395 8.9339C5.61342 8.14096 5.16445 7.45401 4.57532 6.99956C3.9285 6.50062 3.15792 6.32854 2.46098 6.52715C1.76414 6.72585 1.20014 7.2786 0.913683 8.0437C0.65287 8.74049 0.633699 9.5609 0.859824 10.3538C1.08595 11.1468 1.53487 11.8337 2.124 12.2882C2.59471 12.6513 3.13092 12.8413 3.65667 12.8413C3.85335 12.8413 4.04864 12.8147 4.23839 12.7606C4.93528 12.5618 5.49918 12.0091 5.78564 11.244C6.04645 10.5472 6.06557 9.72684 5.8395 8.9339ZM3.82706 11.3181C3.33145 11.4591 2.58365 10.9291 2.30231 9.94246C2.16553 9.46279 2.17143 8.9624 2.31848 8.56954C2.38771 8.38476 2.55164 8.06104 2.87226 7.96964C3.36825 7.82849 4.11562 8.35865 4.39696 9.34523C4.67831 10.3318 4.32239 11.1768 3.82706 11.3181Z"
    fill="#5A00D6" />
</svg>