<svg width="34" height="35" viewBox="0 0 34 35" fill="none" xmlns="http://www.w3.org/2000/svg">
    <path
        d="M26.7081 1.95834L32.5414 7.79167M32.5414 7.79167L26.7081 13.625M32.5414 7.79167H20.8748M31.0831 25.175V29.55C31.0847 29.9561 31.0015 30.3582 30.8388 30.7303C30.6761 31.1024 30.4375 31.4365 30.1382 31.7111C29.8389 31.9856 29.4856 32.1947 29.1009 32.3248C28.7161 32.4549 28.3084 32.5032 27.9039 32.4667C23.4164 31.9791 19.1058 30.4456 15.3185 27.9896C11.7949 25.7506 8.80754 22.7632 6.56851 19.2396C4.10389 15.4351 2.57011 11.1035 2.09143 6.59584C2.05498 6.19256 2.10291 5.78611 2.23216 5.40237C2.3614 5.01863 2.56913 4.66601 2.84213 4.36695C3.11512 4.06789 3.44739 3.82895 3.81779 3.66535C4.18818 3.50174 4.58859 3.41705 4.99351 3.41667H9.36851C10.0762 3.4097 10.7624 3.66033 11.299 4.12182C11.8356 4.58332 12.1861 5.2242 12.2852 5.925C12.4698 7.3251 12.8123 8.69981 13.306 10.0229C13.5022 10.5449 13.5447 11.1122 13.4284 11.6575C13.3121 12.2029 13.0419 12.7035 12.6498 13.1L10.7977 14.9521C12.8737 18.6031 15.8967 21.6261 19.5477 23.7021L21.3998 21.85C21.7963 21.4579 22.2969 21.1877 22.8422 21.0714C23.3876 20.9551 23.9549 20.9975 24.4768 21.1938C25.7999 21.6875 27.1747 22.0299 28.5748 22.2146C29.2832 22.3145 29.9301 22.6713 30.3926 23.2172C30.8551 23.763 31.1008 24.4598 31.0831 25.175Z"
        stroke="#5A00D6" stroke-width="4" stroke-linecap="round" stroke-linejoin="round" />
</svg>